<svg xmlns="http://www.w3.org/2000/svg" xmlns:xlink="http://www.w3.org/1999/xlink" width="500" zoomAndPan="magnify" viewBox="0 0 375 374.999991" height="500" preserveAspectRatio="xMidYMid meet" version="1.0"><defs><clipPath id="1a30f02517"><path d="M 131.25 131.25 L 243.75 131.25 L 243.75 243.75 L 131.25 243.75 Z M 131.25 131.25 " clip-rule="nonzero"/></clipPath><clipPath id="9acdd6a744"><path d="M 187.5 131.25 C 156.433594 131.25 131.25 156.433594 131.25 187.5 C 131.25 218.566406 156.433594 243.75 187.5 243.75 C 218.566406 243.75 243.75 218.566406 243.75 187.5 C 243.75 156.433594 218.566406 131.25 187.5 131.25 Z M 187.5 131.25 " clip-rule="nonzero"/></clipPath><clipPath id="678d19258b"><path d="M 137 159 L 233 159 L 233 233.90625 L 137 233.90625 Z M 137 159 " clip-rule="nonzero"/></clipPath></defs><rect x="-37.5" width="450" fill="#ffffff" y="-37.499999" height="449.999989" fill-opacity="1"/><rect x="-37.5" width="450" fill="#ffffff" y="-37.499999" height="449.999989" fill-opacity="1"/><g clip-path="url(#1a30f02517)"><g clip-path="url(#9acdd6a744)"><path fill="#cde2c6" d="M 131.25 131.25 L 243.75 131.25 L 243.75 243.75 L 131.25 243.75 Z M 131.25 131.25 " fill-opacity="1" fill-rule="nonzero"/></g></g><g clip-path="url(#678d19258b)"><path fill="#61c2a2" d="M 230.527344 161.960938 C 227.472656 158.90625 222.515625 158.90625 219.457031 161.960938 L 169.804688 211.613281 L 150.515625 192.324219 C 147.457031 189.265625 142.5 189.265625 139.445312 192.324219 C 136.386719 195.378906 136.386719 200.335938 139.445312 203.394531 L 169.804688 233.753906 L 230.527344 173.03125 C 233.585938 169.976562 233.585938 165.019531 230.527344 161.960938 " fill-opacity="1" fill-rule="nonzero"/></g></svg>